<svg width="16" height="18" viewBox="0 0 16 18" fill="none" xmlns="http://www.w3.org/2000/svg">
<path d="M5.33936 10.5657L10.487 14.2579M5.33936 10.5657C5.60097 10.1658 5.75357 9.65973 5.75357 9.06272C5.75357 8.46571 5.60097 7.98287 5.33936 7.61203M5.33936 10.5657C4.89911 11.2387 4.15015 11.6112 3.30025 11.6112C1.94531 11.6112 0.846924 10.6644 0.846924 9.06272C0.846924 7.46102 1.94531 6.68108 3.30025 6.68108C4.15015 6.68108 4.89911 6.98795 5.33936 7.61203M10.6563 4.05168L5.33936 7.61203M10.6563 4.05168C11.0186 4.95554 11.9019 5.36638 12.9341 5.36638C14.289 5.36638 15.3874 4.65849 15.3874 3.05678C15.3874 1.45508 14.289 0.600586 12.9341 0.600586C11.5792 0.600586 10.4808 1.45508 10.4808 3.05678C10.4808 3.43828 10.5431 3.76908 10.6563 4.05168ZM15.3874 14.6693C15.3874 16.271 14.289 17.0343 12.9341 17.0343C11.5792 17.0343 10.4808 16.271 10.4808 14.6693C10.4808 13.0676 11.5792 12.1042 12.9341 12.1042C14.289 12.1042 15.3874 13.0676 15.3874 14.6693Z" stroke="#EC888D" stroke-linecap="round" stroke-linejoin="round"/>
</svg>
