<svg width="75" height="72" viewBox="0 0 75 72" fill="none" xmlns="http://www.w3.org/2000/svg">
<rect width="74.0108" height="71.4587" rx="35.3234" fill="#FD5D69"/>
<path d="M35.4976 53.401L51.2955 41.4107C52.3242 40.6294 53.1584 39.6207 53.7326 38.4635C54.3068 37.3063 54.6056 36.032 54.6056 34.7402C54.6056 33.4484 54.3068 32.1741 53.7326 31.0169C53.1584 29.8597 52.3242 28.851 51.2955 28.0697L35.4976 16.0791C34.4977 15.3185 33.3053 14.8526 32.0546 14.7336C30.804 14.6147 29.5447 14.8474 28.4193 15.4059C27.294 15.9643 26.3475 16.8263 25.6858 17.8943C25.0241 18.9622 24.674 20.1937 24.675 21.45V48.0304C24.674 49.2867 25.0241 50.5182 25.6858 51.5861C26.3475 52.6541 27.294 53.5158 28.4193 54.0743C29.5447 54.6327 30.804 54.8657 32.0546 54.7467C33.3053 54.6278 34.4977 54.1616 35.4976 53.401Z" fill="#FFFDF9"/>
</svg>
